<mxfile host="app.diagrams.net" modified="2022-05-05T01:01:24.909Z" agent="5.0 (Windows NT 10.0; Win64; x64) AppleWebKit/537.36 (KHTML, like Gecko) Chrome/100.0.4896.127 Safari/537.36" etag="dzMn88KJGEDipkC9ipi4" version="17.5.0" type="github">
  <diagram id="7JmZbwjB6ELUenlSnrYS" name="Page-1">
    <mxGraphModel dx="1483" dy="770" grid="1" gridSize="10" guides="1" tooltips="1" connect="1" arrows="1" fold="1" page="1" pageScale="1" pageWidth="827" pageHeight="1169" math="0" shadow="0">
      <root>
        <mxCell id="0" />
        <mxCell id="1" parent="0" />
        <mxCell id="d-YAenk6aBPuYDDSgrNd-1" value="DIAGRAMA DE COMPRAS" style="swimlane;childLayout=stackLayout;resizeParent=1;resizeParentMax=0;startSize=27;horizontal=0;horizontalStack=1;" vertex="1" parent="1">
          <mxGeometry x="30" y="80" width="900" height="1240" as="geometry" />
        </mxCell>
        <mxCell id="d-YAenk6aBPuYDDSgrNd-2" value="Área solicitante" style="swimlane;startSize=40;" vertex="1" parent="d-YAenk6aBPuYDDSgrNd-1">
          <mxGeometry x="27" width="153" height="1240" as="geometry" />
        </mxCell>
        <mxCell id="d-YAenk6aBPuYDDSgrNd-3" value="" style="edgeStyle=orthogonalEdgeStyle;rounded=0;orthogonalLoop=1;jettySize=auto;html=1;fontFamily=Helvetica;fontSize=12;fontColor=default;startSize=40;" edge="1" parent="d-YAenk6aBPuYDDSgrNd-2" source="d-YAenk6aBPuYDDSgrNd-4" target="d-YAenk6aBPuYDDSgrNd-5">
          <mxGeometry relative="1" as="geometry" />
        </mxCell>
        <mxCell id="d-YAenk6aBPuYDDSgrNd-4" value="Inicio" style="ellipse;whiteSpace=wrap;html=1;" vertex="1" parent="d-YAenk6aBPuYDDSgrNd-2">
          <mxGeometry x="16.5" y="50" width="120" height="80" as="geometry" />
        </mxCell>
        <mxCell id="d-YAenk6aBPuYDDSgrNd-5" value="Elabora OC de compra en SAP" style="shape=document;whiteSpace=wrap;html=1;boundedLbl=1;rounded=0;glass=0;fontFamily=Helvetica;fontSize=12;fontColor=default;startSize=40;strokeColor=default;fillColor=default;" vertex="1" parent="d-YAenk6aBPuYDDSgrNd-2">
          <mxGeometry x="16.5" y="170" width="120" height="80" as="geometry" />
        </mxCell>
        <mxCell id="d-YAenk6aBPuYDDSgrNd-8" value="Firma de conformidad" style="shape=document;whiteSpace=wrap;html=1;boundedLbl=1;rounded=0;glass=0;fontFamily=Helvetica;fontSize=12;fontColor=default;startSize=40;strokeColor=default;fillColor=default;" vertex="1" parent="d-YAenk6aBPuYDDSgrNd-2">
          <mxGeometry x="13" y="810" width="120" height="80" as="geometry" />
        </mxCell>
        <mxCell id="d-YAenk6aBPuYDDSgrNd-7" value="Recibir el producto o servicio solicitado" style="whiteSpace=wrap;html=1;rounded=0;glass=0;startSize=40;" vertex="1" parent="d-YAenk6aBPuYDDSgrNd-2">
          <mxGeometry x="13" y="680" width="120" height="60" as="geometry" />
        </mxCell>
        <mxCell id="d-YAenk6aBPuYDDSgrNd-6" style="edgeStyle=orthogonalEdgeStyle;rounded=0;orthogonalLoop=1;jettySize=auto;html=1;exitX=0.5;exitY=1;exitDx=0;exitDy=0;entryX=0.5;entryY=0;entryDx=0;entryDy=0;fontFamily=Helvetica;fontSize=12;fontColor=default;startSize=40;" edge="1" parent="d-YAenk6aBPuYDDSgrNd-2" source="d-YAenk6aBPuYDDSgrNd-7" target="d-YAenk6aBPuYDDSgrNd-8">
          <mxGeometry relative="1" as="geometry" />
        </mxCell>
        <mxCell id="d-YAenk6aBPuYDDSgrNd-34" value="Especialista técnico" style="swimlane;startSize=40;" vertex="1" parent="d-YAenk6aBPuYDDSgrNd-1">
          <mxGeometry x="180" width="170" height="1240" as="geometry" />
        </mxCell>
        <mxCell id="d-YAenk6aBPuYDDSgrNd-35" value="Evalúa, señala especificaciones técnicas (PDF)" style="whiteSpace=wrap;html=1;rounded=0;glass=0;startSize=40;" vertex="1" parent="d-YAenk6aBPuYDDSgrNd-34">
          <mxGeometry x="25" y="60" width="120" height="60" as="geometry" />
        </mxCell>
        <mxCell id="d-YAenk6aBPuYDDSgrNd-9" value="Subgerente&#xa; Administrativo" style="swimlane;startSize=40;rounded=0;glass=0;" vertex="1" parent="d-YAenk6aBPuYDDSgrNd-1">
          <mxGeometry x="350" width="350" height="1240" as="geometry">
            <mxRectangle x="147" width="30" height="480" as="alternateBounds" />
          </mxGeometry>
        </mxCell>
        <mxCell id="d-YAenk6aBPuYDDSgrNd-13" value="Elaborar solicitud de transferencia y se obtiene de tesorería" style="whiteSpace=wrap;html=1;rounded=0;glass=0;startSize=40;" vertex="1" parent="d-YAenk6aBPuYDDSgrNd-9">
          <mxGeometry x="115" y="810" width="120" height="60" as="geometry" />
        </mxCell>
        <mxCell id="d-YAenk6aBPuYDDSgrNd-82" value="NO" style="edgeStyle=orthogonalEdgeStyle;rounded=0;orthogonalLoop=1;jettySize=auto;html=1;exitX=0.5;exitY=1;exitDx=0;exitDy=0;entryX=0.5;entryY=0;entryDx=0;entryDy=0;" edge="1" parent="d-YAenk6aBPuYDDSgrNd-9" source="d-YAenk6aBPuYDDSgrNd-64" target="d-YAenk6aBPuYDDSgrNd-65">
          <mxGeometry relative="1" as="geometry" />
        </mxCell>
        <mxCell id="d-YAenk6aBPuYDDSgrNd-84" value="SI" style="edgeStyle=orthogonalEdgeStyle;rounded=0;orthogonalLoop=1;jettySize=auto;html=1;exitX=1;exitY=0.5;exitDx=0;exitDy=0;" edge="1" parent="d-YAenk6aBPuYDDSgrNd-9" source="d-YAenk6aBPuYDDSgrNd-64" target="d-YAenk6aBPuYDDSgrNd-68">
          <mxGeometry relative="1" as="geometry" />
        </mxCell>
        <mxCell id="d-YAenk6aBPuYDDSgrNd-64" value="¿La requisición cumple con los requisitos?" style="rhombus;whiteSpace=wrap;html=1;" vertex="1" parent="d-YAenk6aBPuYDDSgrNd-9">
          <mxGeometry x="40" y="40" width="100" height="100" as="geometry" />
        </mxCell>
        <mxCell id="d-YAenk6aBPuYDDSgrNd-65" value="Se hacen observaciones y se regresa al área solicitante&amp;nbsp;" style="whiteSpace=wrap;html=1;" vertex="1" parent="d-YAenk6aBPuYDDSgrNd-9">
          <mxGeometry x="20" y="210" width="140" height="60" as="geometry" />
        </mxCell>
        <mxCell id="d-YAenk6aBPuYDDSgrNd-68" value="Se firma requisición (pdf)&amp;nbsp;" style="rounded=0;whiteSpace=wrap;html=1;" vertex="1" parent="d-YAenk6aBPuYDDSgrNd-9">
          <mxGeometry x="190" y="60" width="140" height="60" as="geometry" />
        </mxCell>
        <mxCell id="d-YAenk6aBPuYDDSgrNd-14" value="    Jefe recursos &#xa;materiales" style="swimlane;startSize=40;" vertex="1" parent="d-YAenk6aBPuYDDSgrNd-1">
          <mxGeometry x="700" width="200" height="1240" as="geometry" />
        </mxCell>
        <mxCell id="d-YAenk6aBPuYDDSgrNd-16" value="    Jefe recursos &#xa;materiales" style="swimlane;startSize=40;" vertex="1" parent="d-YAenk6aBPuYDDSgrNd-14">
          <mxGeometry width="200" height="1240" as="geometry" />
        </mxCell>
        <mxCell id="d-YAenk6aBPuYDDSgrNd-104" style="edgeStyle=orthogonalEdgeStyle;rounded=0;orthogonalLoop=1;jettySize=auto;html=1;exitX=0.5;exitY=1;exitDx=0;exitDy=0;entryX=0.5;entryY=0;entryDx=0;entryDy=0;" edge="1" parent="d-YAenk6aBPuYDDSgrNd-16" source="d-YAenk6aBPuYDDSgrNd-102" target="d-YAenk6aBPuYDDSgrNd-25">
          <mxGeometry relative="1" as="geometry" />
        </mxCell>
        <mxCell id="d-YAenk6aBPuYDDSgrNd-102" value="&lt;span&gt;Revisión y realiza procedimiento necesario&lt;/span&gt;" style="whiteSpace=wrap;html=1;rounded=0;" vertex="1" parent="d-YAenk6aBPuYDDSgrNd-16">
          <mxGeometry x="40" y="60" width="120" height="60" as="geometry" />
        </mxCell>
        <mxCell id="d-YAenk6aBPuYDDSgrNd-25" value="¿Compra &amp;gt; 50K?" style="rhombus;whiteSpace=wrap;html=1;rounded=0;glass=0;fontFamily=Helvetica;fontSize=12;fontColor=default;startSize=40;strokeColor=default;fillColor=default;" vertex="1" parent="d-YAenk6aBPuYDDSgrNd-16">
          <mxGeometry x="48.75" y="180" width="102.5" height="100" as="geometry" />
        </mxCell>
        <mxCell id="d-YAenk6aBPuYDDSgrNd-106" value="Elabora contrato y da seguimiento" style="shape=document;whiteSpace=wrap;html=1;boundedLbl=1;rounded=0;glass=0;fontFamily=Helvetica;fontSize=12;fontColor=default;startSize=40;strokeColor=default;fillColor=default;" vertex="1" parent="d-YAenk6aBPuYDDSgrNd-16">
          <mxGeometry x="48.75" y="550" width="120" height="80" as="geometry" />
        </mxCell>
        <mxCell id="d-YAenk6aBPuYDDSgrNd-51" value="" style="edgeStyle=orthogonalEdgeStyle;rounded=0;orthogonalLoop=1;jettySize=auto;html=1;fontFamily=Helvetica;fontSize=12;fontColor=default;startSize=40;" edge="1" parent="d-YAenk6aBPuYDDSgrNd-1" source="d-YAenk6aBPuYDDSgrNd-8" target="d-YAenk6aBPuYDDSgrNd-13">
          <mxGeometry relative="1" as="geometry">
            <Array as="points">
              <mxPoint x="340" y="840" />
              <mxPoint x="340" y="840" />
            </Array>
          </mxGeometry>
        </mxCell>
        <mxCell id="d-YAenk6aBPuYDDSgrNd-81" style="edgeStyle=orthogonalEdgeStyle;rounded=0;orthogonalLoop=1;jettySize=auto;html=1;entryX=0;entryY=0.5;entryDx=0;entryDy=0;" edge="1" parent="d-YAenk6aBPuYDDSgrNd-1" target="d-YAenk6aBPuYDDSgrNd-35">
          <mxGeometry relative="1" as="geometry">
            <mxPoint x="167" y="170" as="sourcePoint" />
            <Array as="points">
              <mxPoint x="185" y="170" />
              <mxPoint x="185" y="90" />
            </Array>
          </mxGeometry>
        </mxCell>
        <mxCell id="d-YAenk6aBPuYDDSgrNd-83" style="edgeStyle=orthogonalEdgeStyle;rounded=0;orthogonalLoop=1;jettySize=auto;html=1;exitX=0;exitY=0.5;exitDx=0;exitDy=0;entryX=0.971;entryY=0.871;entryDx=0;entryDy=0;entryPerimeter=0;" edge="1" parent="d-YAenk6aBPuYDDSgrNd-1" source="d-YAenk6aBPuYDDSgrNd-65" target="d-YAenk6aBPuYDDSgrNd-5">
          <mxGeometry relative="1" as="geometry" />
        </mxCell>
        <mxCell id="d-YAenk6aBPuYDDSgrNd-88" style="edgeStyle=orthogonalEdgeStyle;rounded=0;orthogonalLoop=1;jettySize=auto;html=1;exitX=1;exitY=0.5;exitDx=0;exitDy=0;entryX=0;entryY=0.5;entryDx=0;entryDy=0;" edge="1" parent="d-YAenk6aBPuYDDSgrNd-1" source="d-YAenk6aBPuYDDSgrNd-35" target="d-YAenk6aBPuYDDSgrNd-64">
          <mxGeometry relative="1" as="geometry" />
        </mxCell>
        <mxCell id="d-YAenk6aBPuYDDSgrNd-103" value="" style="edgeStyle=orthogonalEdgeStyle;rounded=0;orthogonalLoop=1;jettySize=auto;html=1;" edge="1" parent="d-YAenk6aBPuYDDSgrNd-1" source="d-YAenk6aBPuYDDSgrNd-68" target="d-YAenk6aBPuYDDSgrNd-102">
          <mxGeometry relative="1" as="geometry" />
        </mxCell>
        <mxCell id="d-YAenk6aBPuYDDSgrNd-36" value="Gerente &#xa;Finanzas" style="swimlane;startSize=40;" vertex="1" parent="1">
          <mxGeometry x="1120" y="80" width="250" height="1240" as="geometry" />
        </mxCell>
        <mxCell id="d-YAenk6aBPuYDDSgrNd-90" value="¿La requisición cumple con los requisitos?" style="rhombus;whiteSpace=wrap;html=1;" vertex="1" parent="d-YAenk6aBPuYDDSgrNd-36">
          <mxGeometry x="75" y="180" width="100" height="100" as="geometry" />
        </mxCell>
        <mxCell id="d-YAenk6aBPuYDDSgrNd-113" value="¿Transacción autorizada?" style="rhombus;whiteSpace=wrap;html=1;" vertex="1" parent="d-YAenk6aBPuYDDSgrNd-36">
          <mxGeometry x="73.5" y="797.5" width="95" height="85" as="geometry" />
        </mxCell>
        <mxCell id="d-YAenk6aBPuYDDSgrNd-114" value="Se firma requisición (pdf)&amp;nbsp;" style="rounded=0;whiteSpace=wrap;html=1;" vertex="1" parent="d-YAenk6aBPuYDDSgrNd-36">
          <mxGeometry x="51" y="445" width="140" height="60" as="geometry" />
        </mxCell>
        <mxCell id="d-YAenk6aBPuYDDSgrNd-96" value="SI" style="edgeStyle=orthogonalEdgeStyle;rounded=0;orthogonalLoop=1;jettySize=auto;html=1;exitX=1;exitY=0.5;exitDx=0;exitDy=0;" edge="1" parent="d-YAenk6aBPuYDDSgrNd-36" source="d-YAenk6aBPuYDDSgrNd-90" target="d-YAenk6aBPuYDDSgrNd-114">
          <mxGeometry relative="1" as="geometry" />
        </mxCell>
        <mxCell id="d-YAenk6aBPuYDDSgrNd-91" style="edgeStyle=orthogonalEdgeStyle;rounded=0;orthogonalLoop=1;jettySize=auto;html=1;exitX=1;exitY=0.5;exitDx=0;exitDy=0;" edge="1" parent="1" source="d-YAenk6aBPuYDDSgrNd-25" target="d-YAenk6aBPuYDDSgrNd-90">
          <mxGeometry relative="1" as="geometry" />
        </mxCell>
        <mxCell id="d-YAenk6aBPuYDDSgrNd-94" value="SÍ" style="edgeLabel;html=1;align=center;verticalAlign=middle;resizable=0;points=[];" vertex="1" connectable="0" parent="d-YAenk6aBPuYDDSgrNd-91">
          <mxGeometry x="-0.9302" y="-2" relative="1" as="geometry">
            <mxPoint as="offset" />
          </mxGeometry>
        </mxCell>
        <mxCell id="d-YAenk6aBPuYDDSgrNd-98" style="edgeStyle=orthogonalEdgeStyle;rounded=0;orthogonalLoop=1;jettySize=auto;html=1;exitX=0.5;exitY=1;exitDx=0;exitDy=0;entryX=0.223;entryY=1.028;entryDx=0;entryDy=0;entryPerimeter=0;" edge="1" parent="1" source="d-YAenk6aBPuYDDSgrNd-90" target="d-YAenk6aBPuYDDSgrNd-5">
          <mxGeometry relative="1" as="geometry">
            <Array as="points">
              <mxPoint x="1245" y="400" />
              <mxPoint x="100" y="400" />
            </Array>
          </mxGeometry>
        </mxCell>
        <mxCell id="d-YAenk6aBPuYDDSgrNd-99" value="NO" style="edgeLabel;html=1;align=center;verticalAlign=middle;resizable=0;points=[];" vertex="1" connectable="0" parent="d-YAenk6aBPuYDDSgrNd-98">
          <mxGeometry x="-0.9078" y="2" relative="1" as="geometry">
            <mxPoint as="offset" />
          </mxGeometry>
        </mxCell>
        <mxCell id="d-YAenk6aBPuYDDSgrNd-100" style="edgeStyle=orthogonalEdgeStyle;rounded=0;orthogonalLoop=1;jettySize=auto;html=1;exitX=0.5;exitY=1;exitDx=0;exitDy=0;entryX=0;entryY=0.5;entryDx=0;entryDy=0;" edge="1" parent="1" source="d-YAenk6aBPuYDDSgrNd-25" target="d-YAenk6aBPuYDDSgrNd-95">
          <mxGeometry relative="1" as="geometry" />
        </mxCell>
        <mxCell id="d-YAenk6aBPuYDDSgrNd-101" value="NO" style="edgeLabel;html=1;align=center;verticalAlign=middle;resizable=0;points=[];" vertex="1" connectable="0" parent="d-YAenk6aBPuYDDSgrNd-100">
          <mxGeometry x="-0.8169" y="-4" relative="1" as="geometry">
            <mxPoint as="offset" />
          </mxGeometry>
        </mxCell>
        <mxCell id="d-YAenk6aBPuYDDSgrNd-107" style="edgeStyle=orthogonalEdgeStyle;rounded=0;orthogonalLoop=1;jettySize=auto;html=1;exitX=0.5;exitY=1;exitDx=0;exitDy=0;entryX=0.5;entryY=0;entryDx=0;entryDy=0;" edge="1" parent="1" source="d-YAenk6aBPuYDDSgrNd-95" target="d-YAenk6aBPuYDDSgrNd-106">
          <mxGeometry relative="1" as="geometry" />
        </mxCell>
        <mxCell id="d-YAenk6aBPuYDDSgrNd-111" style="edgeStyle=orthogonalEdgeStyle;rounded=0;orthogonalLoop=1;jettySize=auto;html=1;exitX=1;exitY=0.5;exitDx=0;exitDy=0;entryX=0;entryY=0.5;entryDx=0;entryDy=0;" edge="1" parent="1" source="d-YAenk6aBPuYDDSgrNd-106" target="d-YAenk6aBPuYDDSgrNd-30">
          <mxGeometry relative="1" as="geometry" />
        </mxCell>
        <mxCell id="d-YAenk6aBPuYDDSgrNd-23" value="Auxiliar &#xa;Administrativo" style="swimlane;startSize=40;" vertex="1" parent="1">
          <mxGeometry x="930" y="80" width="190" height="1240" as="geometry" />
        </mxCell>
        <mxCell id="d-YAenk6aBPuYDDSgrNd-28" value="" style="edgeStyle=orthogonalEdgeStyle;rounded=0;orthogonalLoop=1;jettySize=auto;html=1;fontFamily=Helvetica;fontSize=12;fontColor=default;startSize=40;" edge="1" parent="d-YAenk6aBPuYDDSgrNd-23" source="d-YAenk6aBPuYDDSgrNd-26">
          <mxGeometry relative="1" as="geometry">
            <mxPoint x="95" y="535" as="targetPoint" />
          </mxGeometry>
        </mxCell>
        <mxCell id="d-YAenk6aBPuYDDSgrNd-30" value="Entrega contrato al proveedor para su firma" style="whiteSpace=wrap;html=1;rounded=0;glass=0;startSize=40;" vertex="1" parent="d-YAenk6aBPuYDDSgrNd-23">
          <mxGeometry x="35" y="560" width="120" height="60" as="geometry" />
        </mxCell>
        <mxCell id="d-YAenk6aBPuYDDSgrNd-31" value="Se hace transferencia al proveedor" style="whiteSpace=wrap;html=1;rounded=0;glass=0;startSize=40;" vertex="1" parent="d-YAenk6aBPuYDDSgrNd-23">
          <mxGeometry x="35" y="960" width="120" height="60" as="geometry" />
        </mxCell>
        <mxCell id="d-YAenk6aBPuYDDSgrNd-32" value="Fin" style="ellipse;whiteSpace=wrap;html=1;rounded=0;glass=0;startSize=40;" vertex="1" parent="d-YAenk6aBPuYDDSgrNd-23">
          <mxGeometry x="35" y="1050" width="120" height="60" as="geometry" />
        </mxCell>
        <mxCell id="d-YAenk6aBPuYDDSgrNd-33" value="" style="edgeStyle=orthogonalEdgeStyle;rounded=0;orthogonalLoop=1;jettySize=auto;html=1;fontFamily=Helvetica;fontSize=12;fontColor=default;startSize=40;" edge="1" parent="d-YAenk6aBPuYDDSgrNd-23" source="d-YAenk6aBPuYDDSgrNd-31" target="d-YAenk6aBPuYDDSgrNd-32">
          <mxGeometry relative="1" as="geometry" />
        </mxCell>
        <mxCell id="d-YAenk6aBPuYDDSgrNd-95" value="&lt;span&gt;Fincar el pedido al proveedor&lt;/span&gt;" style="whiteSpace=wrap;html=1;" vertex="1" parent="d-YAenk6aBPuYDDSgrNd-23">
          <mxGeometry x="35" y="445" width="120" height="60" as="geometry" />
        </mxCell>
        <mxCell id="d-YAenk6aBPuYDDSgrNd-112" style="edgeStyle=orthogonalEdgeStyle;rounded=0;orthogonalLoop=1;jettySize=auto;html=1;exitX=0.5;exitY=1;exitDx=0;exitDy=0;entryX=0.5;entryY=0;entryDx=0;entryDy=0;" edge="1" parent="1" source="d-YAenk6aBPuYDDSgrNd-30" target="d-YAenk6aBPuYDDSgrNd-7">
          <mxGeometry relative="1" as="geometry" />
        </mxCell>
        <mxCell id="d-YAenk6aBPuYDDSgrNd-115" value="" style="edgeStyle=orthogonalEdgeStyle;rounded=0;orthogonalLoop=1;jettySize=auto;html=1;" edge="1" parent="1" source="d-YAenk6aBPuYDDSgrNd-114" target="d-YAenk6aBPuYDDSgrNd-95">
          <mxGeometry relative="1" as="geometry" />
        </mxCell>
        <mxCell id="d-YAenk6aBPuYDDSgrNd-116" style="edgeStyle=orthogonalEdgeStyle;rounded=0;orthogonalLoop=1;jettySize=auto;html=1;entryX=1;entryY=0.5;entryDx=0;entryDy=0;exitX=0.5;exitY=1;exitDx=0;exitDy=0;" edge="1" parent="1" source="d-YAenk6aBPuYDDSgrNd-113" target="d-YAenk6aBPuYDDSgrNd-31">
          <mxGeometry relative="1" as="geometry">
            <Array as="points">
              <mxPoint x="1241" y="1070" />
            </Array>
          </mxGeometry>
        </mxCell>
        <mxCell id="d-YAenk6aBPuYDDSgrNd-117" value="Sí" style="edgeLabel;html=1;align=center;verticalAlign=middle;resizable=0;points=[];" vertex="1" connectable="0" parent="d-YAenk6aBPuYDDSgrNd-116">
          <mxGeometry x="-0.7717" y="-1" relative="1" as="geometry">
            <mxPoint y="1" as="offset" />
          </mxGeometry>
        </mxCell>
        <mxCell id="d-YAenk6aBPuYDDSgrNd-118" style="edgeStyle=orthogonalEdgeStyle;rounded=0;orthogonalLoop=1;jettySize=auto;html=1;exitX=0.5;exitY=0;exitDx=0;exitDy=0;entryX=0.5;entryY=0;entryDx=0;entryDy=0;" edge="1" parent="1" source="d-YAenk6aBPuYDDSgrNd-113" target="d-YAenk6aBPuYDDSgrNd-13">
          <mxGeometry relative="1" as="geometry" />
        </mxCell>
        <mxCell id="d-YAenk6aBPuYDDSgrNd-119" value="NO" style="edgeLabel;html=1;align=center;verticalAlign=middle;resizable=0;points=[];" vertex="1" connectable="0" parent="d-YAenk6aBPuYDDSgrNd-118">
          <mxGeometry x="-0.8404" y="1" relative="1" as="geometry">
            <mxPoint x="1" as="offset" />
          </mxGeometry>
        </mxCell>
        <mxCell id="d-YAenk6aBPuYDDSgrNd-120" style="edgeStyle=orthogonalEdgeStyle;rounded=0;orthogonalLoop=1;jettySize=auto;html=1;exitX=1;exitY=0.5;exitDx=0;exitDy=0;entryX=0;entryY=0.5;entryDx=0;entryDy=0;" edge="1" parent="1" source="d-YAenk6aBPuYDDSgrNd-13" target="d-YAenk6aBPuYDDSgrNd-113">
          <mxGeometry relative="1" as="geometry" />
        </mxCell>
      </root>
    </mxGraphModel>
  </diagram>
</mxfile>
